<svg xmlns="http://www.w3.org/2000/svg" width="99.944" height="20.15" viewBox="0 0 99.944 20.15">
  <path id="Path_2" data-name="Path 2" d="M2.366,0V-18.2h7.9a7.893,7.893,0,0,1,3.094.533,4.194,4.194,0,0,1,1.911,1.534,4.352,4.352,0,0,1,.663,2.457,4.079,4.079,0,0,1-.793,2.548,4.158,4.158,0,0,1-2.223,1.456l-.026-.546a5.711,5.711,0,0,1,2.093.949,4.761,4.761,0,0,1,1.4,1.625A4.613,4.613,0,0,1,16.9-5.46a5.825,5.825,0,0,1-.455,2.379,4.564,4.564,0,0,1-1.3,1.716A5.609,5.609,0,0,1,13.13-.338,9.353,9.353,0,0,1,10.53,0ZM6.11-3.38h4.264a2.958,2.958,0,0,0,1.95-.585,2.03,2.03,0,0,0,.7-1.651,1.9,1.9,0,0,0-.338-1.144,2.025,2.025,0,0,0-.962-.7A4.222,4.222,0,0,0,10.244-7.7H6.11Zm0-7.462H9.8a2.8,2.8,0,0,0,1.235-.247,1.893,1.893,0,0,0,.793-.7,1.937,1.937,0,0,0,.286-1.053,1.774,1.774,0,0,0-.637-1.456,2.927,2.927,0,0,0-1.885-.52H6.11ZM23.01,0V-18.2H35.282v3.432h-8.45V-3.432h8.632V0Zm1.82-7.618v-3.328h9.2v3.328ZM43.238.858l-1.664-1.4L56.888-19.292l1.794,1.248Zm6.916-.6a9.627,9.627,0,0,1-3.705-.7A8.7,8.7,0,0,1,43.511-2.4a8.991,8.991,0,0,1-1.924-2.977,10.029,10.029,0,0,1-.689-3.77,9.957,9.957,0,0,1,.689-3.744,9.138,9.138,0,0,1,1.924-2.99,8.61,8.61,0,0,1,2.938-1.976,9.627,9.627,0,0,1,3.705-.7,9.434,9.434,0,0,1,3.679.7,8.813,8.813,0,0,1,2.925,1.976,9.033,9.033,0,0,1,1.937,2.99,10.029,10.029,0,0,1,.689,3.77,9.886,9.886,0,0,1-.689,3.718,9.033,9.033,0,0,1-1.937,2.99A8.813,8.813,0,0,1,53.833-.442,9.434,9.434,0,0,1,50.154.26Zm0-3.692a5.112,5.112,0,0,0,2.106-.429,5.12,5.12,0,0,0,1.677-1.2,5.4,5.4,0,0,0,1.1-1.807,6.392,6.392,0,0,0,.39-2.262,6.469,6.469,0,0,0-.39-2.288,5.543,5.543,0,0,0-1.1-1.82,5.033,5.033,0,0,0-1.677-1.209,5.112,5.112,0,0,0-2.106-.429,5.2,5.2,0,0,0-2.119.429,5.083,5.083,0,0,0-1.69,1.2,5.37,5.37,0,0,0-1.1,1.82,6.577,6.577,0,0,0-.39,2.3A6.1,6.1,0,0,0,45.539-6.2a5.251,5.251,0,0,0,1.885,2.028A5.076,5.076,0,0,0,50.154-3.432ZM65.338,0V-18.2H73.4a6.264,6.264,0,0,1,3.081.754,5.784,5.784,0,0,1,2.171,2.067,5.623,5.623,0,0,1,.806,3,5.594,5.594,0,0,1-.806,2.964,5.954,5.954,0,0,1-2.171,2.106,6.1,6.1,0,0,1-3.081.78H69.082V0ZM75.686,0,71.058-8.242l3.978-.65L80.184.026Zm-6.6-9.724h4.16a2.325,2.325,0,0,0,1.235-.325,2.246,2.246,0,0,0,.832-.9,2.764,2.764,0,0,0,.3-1.3,2.482,2.482,0,0,0-.364-1.339,2.461,2.461,0,0,0-1.014-.91,3.33,3.33,0,0,0-1.508-.325h-3.64ZM86.164,0V-18.2h3.484L99.736-4.576h-.7q-.182-1.326-.312-2.639t-.169-2.8q-.039-1.482-.039-3.3V-18.2h3.8V0H98.774L88.5-13.7h.936q.182,1.716.286,2.834t.156,1.859q.052.741.078,1.313t.026,1.2V0Z" transform="translate(-2.366 19.292)" fill="#fff"/>
</svg>
